# xmcd
#
# Track frame offsets: 
#        150
#        20700
#        37350
#        49050
#        67515
#        86300
#        101900
#        118387
#        130685
#        142785
#        157887
#        169880
#        182982
#        195022
#        208047
#        223812
#
# Disc length: 3176 seconds
#
# Revision: 2
# Processed by: cddbd v1.5.2PL0 Copyright (c) Steve Scherf et al.
# Submitted via: ExactAudioCopy v0.95a4
#
DISCID=e10c6610
DTITLE=Various Artist - 16 Top Country Hits - Volume 3
DYEAR=1900
DGENRE=
TTITLE0=Merle Haggard - I Think I'll Just Stay Here and Drink
TTITLE1=Waylon Jennings - Rose In Paradise
TTITLE2=Steve Earle - Guitar Town
TTITLE3=Steve Wariner - Some Fools Never Learn
TTITLE4=Don Williams - Lord, I Hope This Day Is Good
TTITLE5=The Bellamy Brothers - Like To You For Your Love
TTITLE6=Barbara Mandrell - I Was Country When Country Wasn't Cool
TTITLE7=John Conlee - Common Man
TTITLE8=Oak Ridge Boys - American Made
TTITLE9=Conway Twitty - I'd Just Love To Lay You Down
TTITLE10=Gene Watson - Fourteen Carat Mind
TTITLE11=Tanya Tucker - Can I see You Tonight
TTITLE12=John Schneider - I've Been Around Enough To Know
TTITLE13=Conway Twitty and Loretta Lynn - It's True Love
TTITLE14=Ed Bruce - You're the Best Break This Old Heart Ever Had
TTITLE15=Lee Greenwood - God Bless The USA
EXTD=
EXTT0=
EXTT1=
EXTT2=
EXTT3=
EXTT4=
EXTT5=
EXTT6=
EXTT7=
EXTT8=
EXTT9=
EXTT10=
EXTT11=
EXTT12=
EXTT13=
EXTT14=
EXTT15=
PLAYORDER=
